<svg width="25" height="31" viewBox="0 0 25 31" fill="none" xmlns="http://www.w3.org/2000/svg">
<path d="M3.75016 30.0832C2.94808 30.0832 2.26145 29.7976 1.69027 29.2264C1.11909 28.6552 0.833496 27.9686 0.833496 27.1665V9.6665C0.833496 8.86442 1.11909 8.17779 1.69027 7.60661C2.26145 7.03543 2.94808 6.74984 3.75016 6.74984H6.66683C6.66683 5.14567 7.23801 3.77241 8.38037 2.63005C9.52273 1.48768 10.896 0.916504 12.5002 0.916504C14.1043 0.916504 15.4776 1.48768 16.62 2.63005C17.7623 3.77241 18.3335 5.14567 18.3335 6.74984H21.2502C22.0522 6.74984 22.7389 7.03543 23.3101 7.60661C23.8812 8.17779 24.1668 8.86442 24.1668 9.6665V27.1665C24.1668 27.9686 23.8812 28.6552 23.3101 29.2264C22.7389 29.7976 22.0522 30.0832 21.2502 30.0832H3.75016ZM3.75016 27.1665H21.2502V9.6665H18.3335V12.5832C18.3335 12.9964 18.1937 13.3427 17.9142 13.6222C17.6347 13.9017 17.2884 14.0415 16.8752 14.0415C16.462 14.0415 16.1156 13.9017 15.8361 13.6222C15.5566 13.3427 15.4168 12.9964 15.4168 12.5832V9.6665H9.5835V12.5832C9.5835 12.9964 9.44374 13.3427 9.16423 13.6222C8.88471 13.9017 8.53836 14.0415 8.12516 14.0415C7.71197 14.0415 7.36561 13.9017 7.0861 13.6222C6.80659 13.3427 6.66683 12.9964 6.66683 12.5832V9.6665H3.75016V27.1665ZM9.5835 6.74984H15.4168C15.4168 5.94775 15.1312 5.26112 14.5601 4.68994C13.9889 4.11876 13.3022 3.83317 12.5002 3.83317C11.6981 3.83317 11.0114 4.11876 10.4403 4.68994C9.86909 5.26112 9.5835 5.94775 9.5835 6.74984Z" fill="white"/>
</svg>
